<svg width="50" height="43" viewBox="0 0 50 43" fill="none" xmlns="http://www.w3.org/2000/svg">
<path opacity="0.5" fill-rule="evenodd" clip-rule="evenodd" d="M26.5565 2.70692C31.8164 3.23369 36.9083 4.31672 40.9647 7.67262C45.458 11.3899 49.1825 16.1694 49.7966 21.9337C50.473 28.2835 49.6565 35.9101 44.3613 39.5567C39.2755 43.0592 32.7477 37.7055 26.5565 37.9385C19.821 38.192 13.0994 44.4227 7.34437 40.9496C1.26277 37.2795 -0.265362 28.9775 0.0357887 21.9337C0.325211 15.1642 3.38185 8.46555 8.90437 4.46187C13.8639 0.866322 20.4401 2.09438 26.5565 2.70692Z" fill="#E9A429"/>
<path d="M25.4418 33.288C24.2418 33.288 23.1258 33.144 22.0938 32.856C21.0618 32.544 20.1378 32.076 19.3218 31.452C18.5298 30.828 17.8578 30.036 17.3058 29.076C16.7778 28.116 16.4178 26.976 16.2258 25.656H21.3018C21.4458 26.136 21.7098 26.592 22.0938 27.024C22.4778 27.456 22.9578 27.804 23.5338 28.068C24.1338 28.332 24.8058 28.464 25.5498 28.464C26.4618 28.464 27.2298 28.308 27.8538 27.996C28.4778 27.66 28.9578 27.204 29.2938 26.628C29.6298 26.052 29.7978 25.368 29.7978 24.576C29.7978 23.376 29.4138 22.416 28.6458 21.696C27.9018 20.952 26.8458 20.58 25.4778 20.58C24.6858 20.58 23.9418 20.724 23.2458 21.012C22.5738 21.276 21.9258 21.648 21.3018 22.128H16.9098L17.3778 7.512H34.1538V12.228H22.2378L21.9498 17.412C22.6698 16.908 23.4978 16.56 24.4338 16.368C25.3938 16.152 26.3418 16.056 27.2778 16.08C28.9338 16.128 30.3378 16.488 31.4898 17.16C32.6418 17.832 33.5178 18.768 34.1178 19.968C34.7418 21.168 35.0538 22.572 35.0538 24.18C35.0538 26.124 34.6218 27.78 33.7578 29.148C32.9178 30.516 31.7658 31.548 30.3018 32.244C28.8618 32.94 27.2418 33.288 25.4418 33.288Z" fill="#131919"/>
</svg>
