<svg width="50" height="43" viewBox="0 0 50 43" fill="none" xmlns="http://www.w3.org/2000/svg">
<path opacity="0.5" fill-rule="evenodd" clip-rule="evenodd" d="M26.5565 2.70692C31.8164 3.23369 36.9083 4.31672 40.9647 7.67262C45.458 11.3899 49.1825 16.1694 49.7966 21.9337C50.473 28.2835 49.6565 35.9101 44.3613 39.5567C39.2755 43.0592 32.7477 37.7055 26.5565 37.9385C19.821 38.192 13.0994 44.4227 7.34437 40.9496C1.26277 37.2795 -0.265362 28.9775 0.0357887 21.9337C0.325211 15.1642 3.38185 8.46555 8.90437 4.46187C13.8639 0.866322 20.4401 2.09438 26.5565 2.70692Z" fill="#E9A429"/>
<path d="M26.0036 33.288C24.2036 33.288 22.6676 32.952 21.3956 32.28C20.1236 31.608 19.0796 30.684 18.2636 29.508C17.4476 28.332 16.8476 27 16.4636 25.512C16.1036 24 15.9236 22.416 15.9236 20.76C15.9236 18.936 16.1276 17.22 16.5356 15.612C16.9436 13.98 17.5796 12.54 18.4436 11.292C19.3076 10.02 20.3996 9.024 21.7196 8.304C23.0636 7.584 24.6716 7.224 26.5436 7.224C27.9836 7.224 29.2916 7.476 30.4676 7.98C31.6676 8.484 32.6756 9.252 33.4916 10.284C34.3076 11.292 34.8356 12.588 35.0756 14.172H30.1796C29.8916 13.476 29.3996 12.924 28.7036 12.516C28.0316 12.108 27.2396 11.904 26.3276 11.904C25.4876 11.904 24.7556 12.06 24.1316 12.372C23.5076 12.66 22.9676 13.068 22.5116 13.596C22.0796 14.1 21.7196 14.676 21.4316 15.324C21.1436 15.972 20.9396 16.656 20.8196 17.376C20.6996 18.072 20.6396 18.768 20.6396 19.464C21.2156 18.672 21.8756 18.048 22.6196 17.592C23.3876 17.136 24.1556 16.824 24.9236 16.656C25.6916 16.464 26.3876 16.368 27.0116 16.368C28.7156 16.368 30.1796 16.704 31.4036 17.376C32.6276 18.048 33.5636 18.996 34.2116 20.22C34.8836 21.42 35.2196 22.848 35.2196 24.504C35.2196 26.28 34.8236 27.828 34.0316 29.148C33.2396 30.468 32.1476 31.488 30.7556 32.208C29.3876 32.928 27.8036 33.288 26.0036 33.288ZM26.0396 28.572C26.9036 28.572 27.6236 28.392 28.1996 28.032C28.7996 27.672 29.2556 27.204 29.5676 26.628C29.8796 26.028 30.0356 25.392 30.0356 24.72C30.0356 24 29.8796 23.352 29.5676 22.776C29.2556 22.176 28.8116 21.696 28.2356 21.336C27.6596 20.976 26.9516 20.796 26.1116 20.796C25.3196 20.796 24.5876 20.976 23.9156 21.336C23.2676 21.672 22.7636 22.14 22.4036 22.74C22.0436 23.316 21.8636 23.976 21.8636 24.72C21.8636 25.392 22.0316 26.028 22.3676 26.628C22.7036 27.204 23.1836 27.672 23.8076 28.032C24.4316 28.392 25.1756 28.572 26.0396 28.572Z" fill="#131919"/>
</svg>
