<svg width="50" height="43" viewBox="0 0 50 43" fill="none" xmlns="http://www.w3.org/2000/svg">
<path opacity="0.5" fill-rule="evenodd" clip-rule="evenodd" d="M26.5565 2.70692C31.8164 3.23369 36.9083 4.31672 40.9647 7.67262C45.458 11.3899 49.1825 16.1694 49.7966 21.9337C50.473 28.2835 49.6565 35.9101 44.3613 39.5567C39.2755 43.0592 32.7477 37.7055 26.5565 37.9385C19.821 38.192 13.0994 44.4227 7.34437 40.9496C1.26277 37.2795 -0.265362 28.9775 0.0357887 21.9337C0.325211 15.1642 3.38185 8.46555 8.90437 4.46187C13.8639 0.866322 20.4401 2.09438 26.5565 2.70692Z" fill="#E9A429"/>
<path d="M25.3329 33.252C24.1089 33.252 22.9329 33.108 21.8049 32.82C20.6769 32.532 19.6449 32.076 18.7089 31.452C17.7729 30.828 16.9929 30.036 16.3689 29.076C15.7449 28.092 15.3609 26.916 15.2169 25.548H20.3289C20.4969 26.22 20.8209 26.784 21.3009 27.24C21.8049 27.672 22.4049 27.984 23.1009 28.176C23.8209 28.368 24.5769 28.464 25.3689 28.464C25.8969 28.464 26.4129 28.416 26.9169 28.32C27.4449 28.224 27.9129 28.056 28.3209 27.816C28.7529 27.576 29.0889 27.252 29.3289 26.844C29.5689 26.436 29.6889 25.92 29.6889 25.296C29.6889 24.72 29.5809 24.24 29.3649 23.856C29.1489 23.472 28.8609 23.16 28.5009 22.92C28.1409 22.68 27.7089 22.512 27.2049 22.416C26.7249 22.32 26.2089 22.272 25.6569 22.272H22.7049V17.88H24.6849C25.3089 17.88 25.8729 17.82 26.3769 17.7C26.8809 17.556 27.3009 17.364 27.6369 17.124C27.9969 16.86 28.2729 16.548 28.4649 16.188C28.6569 15.804 28.7529 15.372 28.7529 14.892C28.7529 14.172 28.5969 13.608 28.2849 13.2C27.9729 12.768 27.5409 12.456 26.9889 12.264C26.4369 12.072 25.8009 11.976 25.0809 11.976C24.4089 11.976 23.7729 12.084 23.1729 12.3C22.5969 12.492 22.1169 12.78 21.7329 13.164C21.3489 13.548 21.0969 14.016 20.9769 14.568H15.9729C16.1169 13.272 16.4649 12.168 17.0169 11.256C17.5689 10.32 18.2769 9.552 19.1409 8.952C20.0049 8.352 20.9649 7.92 22.0209 7.656C23.1009 7.368 24.2169 7.224 25.3689 7.224C26.4729 7.224 27.5289 7.344 28.5369 7.584C29.5449 7.824 30.4449 8.22 31.2369 8.772C32.0529 9.3 32.7009 10.008 33.1809 10.896C33.6609 11.784 33.9009 12.852 33.9009 14.1C33.9009 14.868 33.7689 15.588 33.5049 16.26C33.2649 16.932 32.9049 17.532 32.4249 18.06C31.9689 18.564 31.4289 18.984 30.8049 19.32C31.7409 19.584 32.5089 20.016 33.1089 20.616C33.7089 21.216 34.1529 21.924 34.4409 22.74C34.7529 23.556 34.9089 24.432 34.9089 25.368C34.9089 26.904 34.6209 28.188 34.0449 29.22C33.4929 30.228 32.7489 31.032 31.8129 31.632C30.8769 32.208 29.8449 32.628 28.7169 32.892C27.5889 33.132 26.4609 33.252 25.3329 33.252Z" fill="#131919"/>
</svg>
