<svg width="50" height="43" viewBox="0 0 50 43" fill="none" xmlns="http://www.w3.org/2000/svg">
<path opacity="0.5" fill-rule="evenodd" clip-rule="evenodd" d="M26.5565 2.70692C31.8164 3.23369 36.9083 4.31672 40.9647 7.67262C45.458 11.3899 49.1825 16.1694 49.7966 21.9337C50.473 28.2835 49.6565 35.9101 44.3613 39.5567C39.2755 43.0592 32.7477 37.7055 26.5565 37.9385C19.821 38.192 13.0994 44.4227 7.34437 40.9496C1.26277 37.2795 -0.265362 28.9775 0.0357887 21.9337C0.325211 15.1642 3.38185 8.46555 8.90437 4.46187C13.8639 0.866322 20.4401 2.09438 26.5565 2.70692Z" fill="#E9A429"/>
<path d="M18.7371 33L28.4571 12.3H16.2891V7.512H34.3251V11.364L24.4611 33H18.7371Z" fill="#131919"/>
</svg>
