<svg width="50" height="43" viewBox="0 0 50 43" fill="none" xmlns="http://www.w3.org/2000/svg">
<path opacity="0.5" fill-rule="evenodd" clip-rule="evenodd" d="M26.5565 2.70692C31.8164 3.23369 36.9083 4.31672 40.9647 7.67262C45.458 11.3899 49.1825 16.1694 49.7966 21.9337C50.473 28.2835 49.6565 35.9101 44.3613 39.5567C39.2755 43.0592 32.7477 37.7055 26.5565 37.9385C19.821 38.192 13.0994 44.4227 7.34437 40.9496C1.26277 37.2795 -0.265362 28.9775 0.0357887 21.9337C0.325211 15.1642 3.38185 8.46555 8.90437 4.46187C13.8639 0.866322 20.4401 2.09438 26.5565 2.70692Z" fill="#E9A429"/>
<path d="M16.1662 33V28.752L23.2222 22.884C23.7262 22.452 24.3022 21.972 24.9502 21.444C25.6222 20.892 26.2582 20.304 26.8582 19.68C27.4822 19.056 27.9862 18.396 28.3702 17.7C28.7782 17.004 28.9822 16.284 28.9822 15.54C28.9822 14.508 28.6582 13.668 28.0102 13.02C27.3862 12.372 26.4622 12.048 25.2382 12.048C24.0862 12.048 23.1742 12.312 22.5022 12.84C21.8542 13.344 21.4462 13.992 21.2782 14.784H16.3102C16.4542 13.08 16.9582 11.676 17.8222 10.572C18.7102 9.444 19.8262 8.604 21.1702 8.052C22.5142 7.5 23.9302 7.224 25.4182 7.224C27.0262 7.224 28.4902 7.524 29.8102 8.124C31.1302 8.724 32.1742 9.6 32.9422 10.752C33.7102 11.88 34.0942 13.284 34.0942 14.964C34.0942 16.404 33.8182 17.712 33.2662 18.888C32.7382 20.04 32.0062 21.12 31.0702 22.128C30.1342 23.112 29.0782 24.06 27.9022 24.972L23.8702 28.248H34.0582V33H16.1662Z" fill="#131919"/>
</svg>
