<svg width="50" height="43" viewBox="0 0 50 43" fill="none" xmlns="http://www.w3.org/2000/svg">
<path opacity="0.5" fill-rule="evenodd" clip-rule="evenodd" d="M26.5565 2.70692C31.8164 3.23369 36.9083 4.31672 40.9647 7.67262C45.458 11.3899 49.1825 16.1694 49.7966 21.9337C50.473 28.2835 49.6565 35.9101 44.3613 39.5567C39.2755 43.0592 32.7477 37.7055 26.5565 37.9385C19.821 38.192 13.0994 44.4227 7.34437 40.9496C1.26277 37.2795 -0.265362 28.9775 0.0357887 21.9337C0.325211 15.1642 3.38185 8.46555 8.90437 4.46187C13.8639 0.866322 20.4401 2.09438 26.5565 2.70692Z" fill="#E9A429"/>
<path d="M25.446 33.288C24.246 33.288 23.082 33.156 21.954 32.892C20.826 32.604 19.794 32.16 18.858 31.56C17.946 30.936 17.214 30.12 16.662 29.112C16.134 28.104 15.87 26.892 15.87 25.476C15.87 24.54 16.002 23.7 16.266 22.956C16.554 22.188 16.962 21.516 17.49 20.94C18.042 20.34 18.702 19.86 19.47 19.5C18.822 19.092 18.294 18.612 17.886 18.06C17.478 17.484 17.178 16.86 16.986 16.188C16.794 15.516 16.698 14.832 16.698 14.136C16.698 12.864 16.95 11.796 17.454 10.932C17.958 10.044 18.63 9.336 19.47 8.808C20.31 8.256 21.258 7.86 22.314 7.62C23.37 7.356 24.438 7.224 25.518 7.224C26.622 7.224 27.69 7.356 28.722 7.62C29.754 7.86 30.69 8.268 31.53 8.844C32.37 9.396 33.042 10.128 33.546 11.04C34.05 11.928 34.302 13.008 34.302 14.28C34.302 14.928 34.194 15.588 33.978 16.26C33.786 16.908 33.474 17.508 33.042 18.06C32.634 18.612 32.106 19.08 31.458 19.464C32.226 19.8 32.886 20.256 33.438 20.832C33.99 21.408 34.41 22.092 34.698 22.884C34.986 23.676 35.13 24.564 35.13 25.548C35.13 26.964 34.854 28.164 34.302 29.148C33.75 30.132 33.006 30.936 32.07 31.56C31.134 32.16 30.09 32.604 28.938 32.892C27.81 33.156 26.646 33.288 25.446 33.288ZM25.482 28.644C26.01 28.644 26.538 28.584 27.066 28.464C27.594 28.344 28.074 28.152 28.506 27.888C28.938 27.6 29.274 27.252 29.514 26.844C29.778 26.412 29.91 25.884 29.91 25.26C29.91 24.492 29.718 23.868 29.334 23.388C28.95 22.884 28.422 22.512 27.75 22.272C27.102 22.008 26.346 21.876 25.482 21.876C24.642 21.876 23.874 22.008 23.178 22.272C22.506 22.512 21.978 22.884 21.594 23.388C21.21 23.868 21.018 24.492 21.018 25.26C21.018 25.884 21.15 26.412 21.414 26.844C21.678 27.252 22.014 27.6 22.422 27.888C22.854 28.152 23.334 28.344 23.862 28.464C24.39 28.584 24.93 28.644 25.482 28.644ZM25.518 17.952C26.286 17.952 26.934 17.832 27.462 17.592C28.014 17.328 28.434 16.968 28.722 16.512C29.034 16.032 29.19 15.504 29.19 14.928C29.19 14.208 29.034 13.62 28.722 13.164C28.41 12.684 27.966 12.324 27.39 12.084C26.838 11.82 26.178 11.688 25.41 11.688C24.666 11.688 24.018 11.82 23.466 12.084C22.938 12.324 22.518 12.672 22.206 13.128C21.918 13.584 21.774 14.136 21.774 14.784C21.774 15.432 21.93 15.996 22.242 16.476C22.554 16.956 22.986 17.328 23.538 17.592C24.114 17.832 24.774 17.952 25.518 17.952Z" fill="#131919"/>
</svg>
