<svg width="46" height="46" viewBox="0 0 46 46" fill="none" xmlns="http://www.w3.org/2000/svg">
<path d="M19.6513 6.64118C18.5154 4.27183 13.244 4.49424 7.87747 7.13794C2.51092 9.78163 -0.918668 13.8455 0.217355 16.2149L0.210689 16.2181L4.17677 29.5303C7.93233 37.3635 31.3882 25.8085 27.6327 17.9753L19.6513 6.64118Z" fill="#FCEB4F"/>
<path d="M27.6337 17.9754L19.6521 6.64136C18.5162 4.272 13.2449 4.4943 7.87845 7.13799C7.27669 7.4345 6.70079 7.74963 6.15143 8.07732C9.44535 6.82915 12.3967 6.90455 13.1068 8.38556L18.8606 16.5564C21.2924 21.6286 7.89751 28.8654 3.18359 26.1938L4.17763 29.5304C7.9333 37.3635 31.3892 25.8085 27.6337 17.9754Z" fill="#E8DA53"/>
<path d="M5.49887 18.3272C5.10893 18.3272 4.77817 18.0232 4.74659 17.6225C4.71326 17.2008 5.02344 16.8316 5.43934 16.7978C7.47081 16.6329 9.86496 15.9136 12.1809 14.7727C14.1109 13.8219 15.8378 12.6561 17.1751 11.4015C17.4813 11.1142 17.9595 11.1328 18.2429 11.4432C18.5264 11.7537 18.5079 12.2383 18.2017 12.5257C16.7569 13.8812 14.9034 15.1348 12.8416 16.1505C10.3604 17.3727 7.77455 18.145 5.56016 18.3247C5.53958 18.3265 5.51911 18.3272 5.49887 18.3272Z" fill="#9B7921"/>
<path d="M45.8094 24.2918C46.7373 21.8311 42.9714 18.0857 37.398 15.9261C31.8246 13.7665 26.5543 14.0107 25.6263 16.4713L25.6194 16.4687L18.7529 28.5074C15.6852 36.6425 40.0453 46.0814 43.113 37.9463L45.8094 24.2918Z" fill="#B7FF9E"/>
<path d="M37.3979 15.9261C36.8611 15.7181 36.327 15.5329 35.7994 15.3693C39.2635 17.037 41.4541 19.4652 40.8286 21.1237L38.7861 31.4671C36.6717 37.0743 21.2053 31.6603 20.1848 25.9969L18.7529 28.5076C15.6852 36.6427 40.0453 46.0816 43.113 37.9465L45.8093 24.2918C46.7371 21.8311 42.9713 18.0855 37.3979 15.9261Z" fill="#82F38D"/>
<path d="M40.6377 27.2475C40.6198 27.2475 40.6018 27.2469 40.5835 27.2456C38.6193 27.1045 36.4495 26.5914 34.3085 25.7619C31.7315 24.7633 29.4069 23.3795 27.763 21.8653C27.4543 21.5807 27.4313 21.0963 27.712 20.7833C27.9926 20.4703 28.4705 20.447 28.7794 20.7316C30.2874 22.1206 32.4427 23.3989 34.8482 24.331C36.8522 25.1076 38.8723 25.587 40.6903 25.7175C41.1065 25.7474 41.4201 26.1139 41.3906 26.5357C41.3625 26.9391 41.0308 27.2475 40.6377 27.2475Z" fill="#51D056"/>
<path d="M37.2422 35.0848C37.1594 35.0848 37.0754 35.0708 36.9929 35.0417C36.5988 34.902 36.3911 34.4652 36.5289 34.0659L37.1586 32.2399C37.2964 31.8405 37.7275 31.6302 38.1212 31.7696C38.5152 31.9093 38.7229 32.346 38.5852 32.7453L37.9554 34.5713C37.8468 34.8871 37.5545 35.0848 37.2422 35.0848Z" fill="#51D056"/>
<path d="M31.8378 35.036C31.755 35.036 31.6709 35.022 31.5885 34.9928C31.1945 34.8532 30.9868 34.4163 31.1246 34.017L31.7544 32.191C31.8922 31.7917 32.3233 31.5814 32.7171 31.7208C33.111 31.8604 33.3187 32.2973 33.181 32.6967L32.5511 34.5228C32.4424 34.8384 32.1501 35.036 31.8378 35.036Z" fill="#51D056"/>
</svg>
