<svg width="46" height="46" viewBox="0 0 46 46" fill="none" xmlns="http://www.w3.org/2000/svg">
<g clip-path="url(#clip0_283_1529)">
<path d="M40.7414 5.25903L35.4196 8.03787L32.6435 13.3573C35.1795 15.8929 35.1795 20.019 32.6435 22.5547L22.5554 32.6428C20.0198 35.1788 15.8936 35.1788 13.358 32.6428L8.0351 35.4223L5.25977 40.7407C12.2721 47.7531 23.6413 47.7531 30.6533 40.7407L40.7414 30.6525C47.7538 23.6405 47.7538 12.2714 40.7414 5.25903Z" fill="#70DA40"/>
<path d="M13.3573 23.4454L23.4454 13.3573C25.981 10.8213 30.1072 10.8213 32.6428 13.3573L40.7407 5.25902C33.7286 -1.75301 22.3595 -1.75301 15.3475 5.25902L5.25902 15.3475C-1.75301 22.3595 -1.75301 33.7286 5.25902 40.7407L13.3573 32.6428C10.8213 30.1072 10.8213 25.981 13.3573 23.4454Z" fill="#B0EB95"/>
<path d="M4.37305 26.6113H7.06836V29.4769H4.37305V26.6113Z" fill="#FFF5F5"/>
<path d="M7.33984 36.6362L9.24587 34.7302L11.2719 36.7563L9.36624 38.6623L7.33984 36.6362Z" fill="#FFF5F5"/>
<path d="M16.5215 38.9308H19.387V41.6261H16.5215V38.9308Z" fill="#FFF5F5"/>
<path d="M28.3581 33.0369L30.2638 34.9429L28.2377 36.9689L26.332 35.0629L28.3581 33.0369Z" fill="#FFF5F5"/>
<path d="M35.0632 26.3323L36.9692 28.2379L34.9431 30.264L33.0371 28.3583L35.0632 26.3323Z" fill="#FFF5F5"/>
<path d="M38.9238 16.5295H41.6191V19.3951H38.9238V16.5295Z" fill="#FFF5F5"/>
<path d="M26.6035 4.38025H29.469V7.07556H26.6035V4.38025Z" fill="#FFF5F5"/>
<path d="M36.6248 7.33875L38.6508 9.36479L36.7448 11.2705L34.7188 9.24442L36.6248 7.33875Z" fill="#FFF5F5"/>
<path d="M10.3796 16.4105L12.2856 18.3165L10.2595 20.3426L8.35352 18.4366L10.3796 16.4105Z" fill="#FFF5F5"/>
<path d="M18.4362 8.3551L20.3419 10.2608L18.3158 12.2868L16.4102 10.3812L18.4362 8.3551Z" fill="#FFF5F5"/>
</g>
<defs>
<clipPath id="clip0_283_1529">
<rect width="46" height="46" fill="white"/>
</clipPath>
</defs>
</svg>
