<svg width="46" height="46" viewBox="0 0 46 46" fill="none" xmlns="http://www.w3.org/2000/svg">
<path d="M15.8203 5.03845H30.1881V8.61783H15.8203V5.03845Z" fill="#B3ED55"/>
<path d="M30.5541 26.6226C33.3572 26.8022 35.5781 29.1382 35.5781 31.9916C35.5781 34.9744 33.1631 37.3822 30.1875 37.3822V33.7885C32.1712 33.7885 33.7812 32.1785 33.7812 30.1947C33.7812 28.3332 32.3653 26.8022 30.5541 26.6226Z" fill="#F6BB42"/>
<path d="M41.6875 8.63217C42.6866 8.63217 43.4844 9.43717 43.4844 10.429C43.4844 11.349 42.8016 12.1037 41.9103 12.2115C41.8384 12.2187 41.7594 12.2259 41.6875 12.2259H30.1875V12.2115V8.6178H41.6875V8.63217Z" fill="#F6BB42"/>
<path d="M45.2812 8.6322C45.2812 10.5441 43.8006 12.1038 41.9103 12.2116C42.8016 12.1038 43.4844 11.3491 43.4844 10.4291C43.4844 9.4372 42.6866 8.6322 41.6875 8.6322V8.61783H30.1875V5.03845H41.6875C43.6784 5.03845 45.2812 6.64845 45.2812 8.6322Z" fill="#FFCE54"/>
<path d="M15.8053 19.399H15.8125V26.5865C9.85406 26.5865 5.03125 21.7637 5.03125 15.8053C5.03125 9.85405 9.85406 5.02405 15.8125 5.02405H15.8197V5.03842V8.6178H15.8053C12.829 8.6178 10.4147 11.0321 10.4147 14.0084C10.4147 16.8683 12.6356 19.1978 15.4387 19.3775C15.5609 19.3911 15.6831 19.399 15.8053 19.399Z" fill="#FFCE54"/>
<path d="M30.1875 19.4134V26.5865H15.8125V19.399H30.1875V19.4134Z" fill="#B3ED55"/>
<path d="M15.8047 8.6178H15.8191V12.2115H15.8047C13.8209 12.2115 12.2109 13.8208 12.2109 15.8053C12.2109 17.674 13.6269 19.1978 15.4381 19.3775C12.635 19.1978 10.4141 16.869 10.4141 14.0084C10.4141 11.0328 12.8291 8.6178 15.8047 8.6178Z" fill="#F6BB42"/>
<path d="M30.1881 12.2115V12.2259H15.8203V12.2115V8.6178H30.1881V12.2115Z" fill="#7DDA44"/>
<path d="M30.1875 40.976V37.3822C33.1631 37.3822 35.5781 34.9744 35.5781 31.9916C35.5781 29.1381 33.3572 26.8022 30.5541 26.6225C30.4319 26.6074 30.3097 26.601 30.1875 26.601V26.5866V19.4135C36.1387 19.4135 40.9688 24.2435 40.9688 30.1947C40.9688 36.1531 36.1387 40.976 30.1875 40.976Z" fill="#FFCE54"/>
<path d="M15.8203 37.3822H30.1881V40.976H15.8203V37.3822Z" fill="#B3ED55"/>
<path d="M4.3125 37.3822C3.32063 37.3822 2.51562 38.1872 2.51562 39.1791C2.51562 40.0991 3.20563 40.8538 4.08969 40.9616C2.20656 40.8538 0.71875 39.2941 0.71875 37.3822C0.71875 35.3985 2.32875 33.7885 4.3125 33.7885H15.8197V37.3822H4.3125Z" fill="#F6BB42"/>
<path d="M15.8203 33.7885H30.1881V37.3822H15.8203V33.7885Z" fill="#7DDA44"/>
<path d="M15.8197 37.3822V40.976H4.3125C4.24063 40.976 4.16156 40.9688 4.08969 40.9616C3.20563 40.8538 2.51562 40.0991 2.51562 39.1791C2.51562 38.1872 3.32063 37.3822 4.3125 37.3822H15.8197Z" fill="#FFCE54"/>
</svg>
