<svg width="46" height="46" viewBox="0 0 46 46" fill="none" xmlns="http://www.w3.org/2000/svg">
<g clip-path="url(#clip0_283_1572)">
<path fill-rule="evenodd" clip-rule="evenodd" d="M45.4028 9.55367C44.4463 9.55367 43.6802 9.36721 42.2009 8.77454C40.4518 8.07381 39.8079 7.96067 37.9034 8.01958C36.5248 8.0623 36.3226 8.09435 35.4754 8.40484C32.31 9.56466 32.6149 9.48615 31.0915 9.53334C29.3222 9.58809 28.6298 9.46801 27.0045 8.82442C25.2288 8.12141 24.6442 8.00122 23 8.00122C21.3558 8.00122 20.7712 8.12141 18.9955 8.82442C17.3702 9.468 16.6778 9.58809 14.9085 9.53334C13.592 9.49258 13.4334 9.46458 12.4241 9.09519C9.4187 7.9952 9.72807 8.07205 8.09661 8.02051C6.19234 7.96036 5.54978 8.07309 3.79911 8.77454C2.31982 9.3672 1.55373 9.55366 0.597179 9.55366L-6.78595e-08 9.55366L-3.23976e-07 15.4129L-5.80092e-07 21.2722L0.693077 21.2706C1.6139 21.2687 2.45679 21.0587 4.00446 20.4459C5.62976 19.8023 6.32223 19.6822 8.09148 19.737C9.40802 19.7777 9.56656 19.8057 10.5759 20.1751C13.5813 21.2751 13.2719 21.1982 14.9034 21.2498C16.7646 21.3085 17.464 21.1942 18.9838 20.5824C20.9988 19.7714 21.0111 19.7689 23 19.7689C24.9889 19.7689 25.0012 19.7714 27.0162 20.5825C28.536 21.1942 29.2354 21.3085 31.0966 21.2498C32.7281 21.1982 32.4187 21.2751 35.4241 20.1751C36.4334 19.8057 36.592 19.7777 37.9085 19.737C39.6778 19.6822 40.3702 19.8023 41.9955 20.4459C43.5432 21.0587 44.3861 21.2687 45.3069 21.2706L46 21.2722L46 15.4129L46 9.55367L45.4028 9.55367ZM45.4028 26.1463C44.4463 26.1463 43.6802 25.9598 42.2009 25.3671C40.4518 24.6664 39.8079 24.5533 37.9034 24.6122C36.5248 24.6549 36.3226 24.6869 35.4754 24.9974C32.31 26.1573 32.6149 26.0787 31.0915 26.1259C29.3222 26.1807 28.6298 26.0606 27.0045 25.417C25.2288 24.714 24.6442 24.5938 23 24.5938C21.3558 24.5938 20.7712 24.714 18.9955 25.417C17.3702 26.0606 16.6778 26.1807 14.9085 26.1259C13.592 26.0852 13.4334 26.0572 12.4241 25.6878C9.4187 24.5878 9.72807 24.6646 8.09661 24.6131C6.19234 24.553 5.54978 24.6657 3.79911 25.3671C2.31982 25.9598 1.55373 26.1463 0.597179 26.1463L-7.93145e-07 26.1463L-1.04926e-06 32.0055L-1.30538e-06 37.8648L0.693076 37.8632C1.6139 37.8612 2.45679 37.6513 4.00446 37.0385C5.62976 36.3949 6.32223 36.2748 8.09148 36.3295C9.40802 36.3703 9.56656 36.3983 10.5759 36.7677C13.5813 37.8677 13.2719 37.7908 14.9034 37.8424C16.7646 37.9011 17.464 37.7868 18.9838 37.175C20.9988 36.364 21.0111 36.3615 23 36.3615C24.9889 36.3615 25.0012 36.364 27.0162 37.175C28.536 37.7868 29.2354 37.9011 31.0966 37.8424C32.7281 37.7908 32.4187 37.8677 35.4241 36.7677C36.4334 36.3983 36.592 36.3703 37.9085 36.3295C39.6778 36.2748 40.3702 36.3949 41.9955 37.0385C43.5432 37.6513 44.3861 37.8612 45.3069 37.8632L46 37.8648L46 32.0055L46 26.1463L45.4028 26.1463Z" fill="#9CE562"/>
<path fill-rule="evenodd" clip-rule="evenodd" d="M45.4028 9.55367C44.4463 9.55367 43.6802 9.36721 42.2009 8.77454C40.4518 8.07381 39.8079 7.96067 37.9034 8.01958C36.5248 8.0623 36.3226 8.09435 35.4754 8.40484C32.31 9.56466 32.6149 9.48615 31.0915 9.53334C29.3222 9.58809 28.6298 9.46801 27.0045 8.82442C25.2288 8.12141 24.6442 8.00122 23 8.00122C21.3558 8.00122 20.7712 8.12141 18.9955 8.82442C17.3702 9.468 16.6778 9.58809 14.9085 9.53334C13.592 9.49258 13.4334 9.46458 12.4241 9.09519C9.4187 7.9952 9.72807 8.07205 8.09661 8.02051C6.19234 7.96036 5.54978 8.07309 3.79911 8.77454C2.31982 9.3672 1.55373 9.55366 0.597179 9.55366L-6.78595e-08 9.55366L-3.23976e-07 15.4129L-5.80092e-07 21.2722L0.693077 21.2706C1.6139 21.2687 2.45679 21.0587 4.00446 20.4459C5.62976 19.8023 6.32223 19.6822 8.09148 19.737C9.40802 19.7777 9.56656 19.8057 10.5759 20.1751C13.5813 21.2751 13.2719 21.1982 14.9034 21.2498C16.7646 21.3085 17.464 21.1942 18.9838 20.5824C20.9988 19.7714 21.0111 19.7689 23 19.7689C24.9889 19.7689 25.0012 19.7714 27.0162 20.5825C28.536 21.1942 29.2354 21.3085 31.0966 21.2498C32.7281 21.1982 32.4187 21.2751 35.4241 20.1751C36.4334 19.8057 36.592 19.7777 37.9085 19.737C39.6778 19.6822 40.3702 19.8023 41.9955 20.4459C43.5432 21.0587 44.3861 21.2687 45.3069 21.2706L46 21.2722L46 15.4129L46 9.55367L45.4028 9.55367ZM45.431 30.087C44.5627 30.087 43.4257 29.8114 42.1962 29.3027C40.6079 28.6457 39.9237 28.5029 38.3504 28.5003C36.7847 28.4977 36.1596 28.628 34.4395 29.315C32.8925 29.933 32.1508 30.0834 30.6496 30.0834C29.1476 30.0834 28.4259 29.937 26.9275 29.3287C25.1818 28.62 24.605 28.498 23 28.498C21.395 28.498 20.8182 28.62 19.0725 29.3287C17.5741 29.937 16.8524 30.0834 15.3504 30.0834C13.8492 30.0834 13.1075 29.933 11.5605 29.315C9.8404 28.628 9.2153 28.4977 7.64955 28.5003C6.07641 28.5029 5.39463 28.6452 3.82344 29.2987C2.60793 29.8044 1.44109 30.087 0.569041 30.087L-9.654e-07 30.087L-1.0518e-06 32.0637L-1.1382e-06 34.0403L0.744418 33.9732C1.79615 33.8783 2.60239 33.6647 3.90702 33.1351C5.38282 32.5359 6.21123 32.3681 7.6819 32.3702C9.15235 32.3725 9.9015 32.526 11.4395 33.1404C13.1596 33.8275 13.7847 33.9577 15.3504 33.9551C16.9237 33.9526 17.6079 33.8098 19.1962 33.1528C20.6146 32.566 21.5727 32.3685 23 32.3685C24.4313 32.3685 25.4171 32.5717 26.8234 33.1567C28.3946 33.8103 29.0764 33.9526 30.6496 33.9551C32.2153 33.9577 32.8404 33.8275 34.5605 33.1405C36.1075 32.5225 36.8492 32.3721 38.3504 32.3721C39.8314 32.3721 40.5708 32.5189 41.9955 33.0957C42.5885 33.3357 43.2816 33.5947 43.5357 33.6711C43.9349 33.7912 45.4826 34.0277 45.869 34.0277C45.9706 34.0277 46 33.5862 46 32.0574L46 30.087L45.431 30.087Z" fill="#55FF66"/>
<path fill-rule="evenodd" clip-rule="evenodd" d="M45.4028 9.55367C44.4463 9.55367 43.6802 9.36721 42.2009 8.77454C40.4518 8.07381 39.8079 7.96067 37.9034 8.01958C36.5248 8.0623 36.3226 8.09435 35.4754 8.40484C32.31 9.56466 32.6149 9.48615 31.0915 9.53334C29.3222 9.58809 28.6298 9.46801 27.0045 8.82442C25.2288 8.12141 24.6442 8.00122 23 8.00122C21.3558 8.00122 20.7712 8.12141 18.9955 8.82442C17.3702 9.468 16.6778 9.58809 14.9085 9.53334C13.592 9.49258 13.4334 9.46458 12.4241 9.09519C9.4187 7.9952 9.72807 8.07205 8.09661 8.02051C6.19234 7.96036 5.54978 8.07309 3.79911 8.77454C2.31982 9.3672 1.55373 9.55366 0.597179 9.55366L-6.78595e-08 9.55366L-3.23976e-07 15.4129L-5.80092e-07 21.2722L0.693077 21.2706C1.6139 21.2687 2.45679 21.0587 4.00446 20.4459C5.62976 19.8023 6.32223 19.6822 8.09148 19.737C9.40802 19.7777 9.56656 19.8057 10.5759 20.1751C13.5813 21.2751 13.2719 21.1982 14.9034 21.2498C16.7646 21.3085 17.464 21.1942 18.9838 20.5824C20.9988 19.7714 21.0111 19.7689 23 19.7689C24.9889 19.7689 25.0012 19.7714 27.0162 20.5825C28.536 21.1942 29.2354 21.3085 31.0966 21.2498C32.7281 21.1982 32.4187 21.2751 35.4241 20.1751C36.4334 19.8057 36.592 19.7777 37.9085 19.737C39.6778 19.6822 40.3702 19.8023 41.9955 20.4459C43.5432 21.0587 44.3861 21.2687 45.3069 21.2706L46 21.2722L46 15.4129L46 9.55367L45.4028 9.55367ZM45.431 30.087C44.5627 30.087 43.4257 29.8114 42.1962 29.3027C40.6079 28.6457 39.9237 28.5029 38.3504 28.5003C36.7847 28.4977 36.1596 28.628 34.4395 29.315C32.8925 29.933 32.1508 30.0834 30.6496 30.0834C29.1476 30.0834 28.4259 29.937 26.9275 29.3287C25.1818 28.62 24.605 28.498 23 28.498C21.395 28.498 20.8182 28.62 19.0725 29.3287C17.5741 29.937 16.8524 30.0834 15.3504 30.0834C13.8492 30.0834 13.1075 29.933 11.5605 29.315C9.8404 28.628 9.2153 28.4977 7.64955 28.5003C6.07641 28.5029 5.39463 28.6452 3.82344 29.2987C2.60793 29.8044 1.44109 30.087 0.569041 30.087L-9.654e-07 30.087L-1.0518e-06 32.0637L-1.1382e-06 34.0403L0.744418 33.9732C1.79615 33.8783 2.60239 33.6647 3.90702 33.1351C5.38282 32.5359 6.21123 32.3681 7.6819 32.3702C9.15235 32.3725 9.9015 32.526 11.4395 33.1404C13.1596 33.8275 13.7847 33.9577 15.3504 33.9551C16.9237 33.9526 17.6079 33.8098 19.1962 33.1528C20.6146 32.566 21.5727 32.3685 23 32.3685C24.4313 32.3685 25.4171 32.5717 26.8234 33.1567C28.3946 33.8103 29.0764 33.9526 30.6496 33.9551C32.2153 33.9577 32.8404 33.8275 34.5605 33.1405C36.1075 32.5225 36.8492 32.3721 38.3504 32.3721C39.8314 32.3721 40.5708 32.5189 41.9955 33.0957C42.5885 33.3357 43.2816 33.5947 43.5357 33.6711C43.9349 33.7912 45.4826 34.0277 45.869 34.0277C45.9706 34.0277 46 33.5862 46 32.0574L46 30.087L45.431 30.087Z" fill="#33FF00"/>
<path fill-rule="evenodd" clip-rule="evenodd" d="M45.4028 9.55367C44.4463 9.55367 43.6802 9.36721 42.2009 8.77454C40.4518 8.07381 39.8079 7.96067 37.9034 8.01958C36.5248 8.0623 36.3226 8.09435 35.4754 8.40484C32.31 9.56466 32.6149 9.48615 31.0915 9.53334C29.3222 9.58809 28.6298 9.46801 27.0045 8.82442C25.2288 8.12141 24.6442 8.00122 23 8.00122C21.3558 8.00122 20.7712 8.12141 18.9955 8.82442C17.3702 9.468 16.6778 9.58809 14.9085 9.53334C13.592 9.49258 13.4334 9.46458 12.4241 9.09519C9.4187 7.9952 9.72807 8.07205 8.09661 8.02051C6.19234 7.96036 5.54978 8.07309 3.79911 8.77454C2.31982 9.3672 1.55373 9.55366 0.597179 9.55366L-6.78595e-08 9.55366L-3.23976e-07 15.4129L-5.80092e-07 21.2722L0.693077 21.2706C1.6139 21.2687 2.45679 21.0587 4.00446 20.4459C5.62976 19.8023 6.32223 19.6822 8.09148 19.737C9.40802 19.7777 9.56656 19.8057 10.5759 20.1751C13.5813 21.2751 13.2719 21.1982 14.9034 21.2498C16.7646 21.3085 17.464 21.1942 18.9838 20.5824C20.9988 19.7714 21.0111 19.7689 23 19.7689C24.9889 19.7689 25.0012 19.7714 27.0162 20.5825C28.536 21.1942 29.2354 21.3085 31.0966 21.2498C32.7281 21.1982 32.4187 21.2751 35.4241 20.1751C36.4334 19.8057 36.592 19.7777 37.9085 19.737C39.6778 19.6822 40.3702 19.8023 41.9955 20.4459C43.5432 21.0587 44.3861 21.2687 45.3069 21.2706L46 21.2722L46 15.4129L46 9.55367L45.4028 9.55367ZM45.431 30.087C44.5627 30.087 43.4257 29.8114 42.1962 29.3027C40.6079 28.6457 39.9237 28.5029 38.3504 28.5003C36.7847 28.4977 36.1596 28.628 34.4395 29.315C32.8925 29.933 32.1508 30.0834 30.6496 30.0834C29.1476 30.0834 28.4259 29.937 26.9275 29.3287C25.1818 28.62 24.605 28.498 23 28.498C21.395 28.498 20.8182 28.62 19.0725 29.3287C17.5741 29.937 16.8524 30.0834 15.3504 30.0834C13.8492 30.0834 13.1075 29.933 11.5605 29.315C9.8404 28.628 9.2153 28.4977 7.64955 28.5003C6.07641 28.5029 5.39463 28.6452 3.82344 29.2987C2.60793 29.8044 1.44109 30.087 0.569041 30.087L-9.654e-07 30.087L-1.0518e-06 32.0637L-1.1382e-06 34.0403L0.744418 33.9732C1.79615 33.8783 2.60239 33.6647 3.90702 33.1351C5.38282 32.5359 6.21123 32.3681 7.6819 32.3702C9.15235 32.3725 9.9015 32.526 11.4395 33.1404C13.1596 33.8275 13.7847 33.9577 15.3504 33.9551C16.9237 33.9526 17.6079 33.8098 19.1962 33.1528C20.6146 32.566 21.5727 32.3685 23 32.3685C24.4313 32.3685 25.4171 32.5717 26.8234 33.1567C28.3946 33.8103 29.0764 33.9526 30.6496 33.9551C32.2153 33.9577 32.8404 33.8275 34.5605 33.1405C36.1075 32.5225 36.8492 32.3721 38.3504 32.3721C39.8314 32.3721 40.5708 32.5189 41.9955 33.0957C42.5885 33.3357 43.2816 33.5947 43.5357 33.6711C43.9349 33.7912 45.4826 34.0277 45.869 34.0277C45.9706 34.0277 46 33.5862 46 32.0574L46 30.087L45.431 30.087Z" fill="#D4E6FF"/>
<path fill-rule="evenodd" clip-rule="evenodd" d="M45.4028 9.55367C44.4463 9.55367 43.6802 9.36721 42.2009 8.77454C40.4518 8.07381 39.8079 7.96067 37.9034 8.01958C36.5248 8.0623 36.3226 8.09435 35.4754 8.40484C32.31 9.56466 32.6149 9.48615 31.0915 9.53334C29.3222 9.58809 28.6298 9.46801 27.0045 8.82442C25.2288 8.12141 24.6442 8.00122 23 8.00122C21.3558 8.00122 20.7712 8.12141 18.9955 8.82442C17.3702 9.468 16.6778 9.58809 14.9085 9.53334C13.592 9.49258 13.4334 9.46458 12.4241 9.09519C9.4187 7.9952 9.72807 8.07205 8.09661 8.02051C6.19234 7.96036 5.54978 8.07309 3.79911 8.77454C2.31982 9.3672 1.55373 9.55366 0.597179 9.55366L-6.78595e-08 9.55366L-1.53987e-07 11.524L-2.40115e-07 13.4944L0.641739 13.4926C1.57499 13.4899 2.45155 13.2724 3.90178 12.6833C5.46527 12.0484 6.1563 11.9104 7.75223 11.9152C9.22064 11.9195 9.93066 12.0703 11.5197 12.7157C13.1673 13.3848 13.9815 13.5303 15.7511 13.4716C17.0354 13.4291 17.2971 13.388 18.0714 13.1078C18.5515 12.934 19.4118 12.6227 19.9834 12.4158C21.25 11.9574 22.5355 11.8064 23.9887 11.9453C24.6841 12.0118 25.2858 12.1513 26.0166 12.4158C26.5882 12.6227 27.4485 12.934 27.9286 13.1078C28.7029 13.388 28.9646 13.4291 30.2489 13.4716C32.0185 13.5303 32.8327 13.3848 34.4803 12.7157C36.0693 12.0703 36.7794 11.9195 38.2478 11.9152C39.8398 11.9104 40.5348 12.0484 42.0795 12.6756C43.4922 13.2491 44.484 13.4944 45.3906 13.4944L46 13.4944L46 11.524L46 9.55367L45.4028 9.55367ZM45.6663 17.3936C45.4827 17.3655 45.0355 17.3165 44.6725 17.2848C44.3093 17.253 43.5474 17.0587 42.9783 16.8527C42.4095 16.6469 41.5515 16.3361 41.0714 16.1621C40.2879 15.8781 40.0447 15.8409 38.6937 15.7983C36.9002 15.7417 36.2151 15.8664 34.5026 16.5618C32.9309 17.1997 32.2169 17.3508 30.7522 17.3551C29.1563 17.3599 28.4653 17.2219 26.9018 16.587C25.269 15.9238 24.5814 15.7799 23.0323 15.7776C21.4782 15.7755 20.7023 15.9358 19.0795 16.5947C17.5348 17.2219 16.8398 17.3599 15.2478 17.3551C13.7831 17.3508 13.0691 17.1997 11.4974 16.5618C9.78485 15.8664 9.09979 15.7417 7.3063 15.7983C5.95526 15.8409 5.71211 15.8781 4.92857 16.1621C4.44855 16.3361 3.59046 16.6469 3.02172 16.8527C2.45258 17.0587 1.6907 17.253 1.32753 17.2848C0.964458 17.3165 0.517189 17.3655 0.333702 17.3936L-4.12783e-07 17.4446L-4.96435e-07 19.3583L-5.80092e-07 21.2722L0.693077 21.2706C1.6139 21.2687 2.45679 21.0587 4.00446 20.4459C5.62976 19.8023 6.32223 19.6822 8.09148 19.737C9.40802 19.7777 9.56656 19.8057 10.5759 20.1751C13.5813 21.2751 13.2719 21.1982 14.9034 21.2498C16.7646 21.3085 17.464 21.1942 18.9838 20.5824C20.9988 19.7714 21.0111 19.7689 23 19.7689C24.9889 19.7689 25.0012 19.7714 27.0162 20.5825C28.536 21.1942 29.2354 21.3085 31.0966 21.2498C32.7281 21.1982 32.4187 21.2751 35.4241 20.1751C36.4334 19.8057 36.592 19.7777 37.9085 19.737C39.6778 19.6822 40.3702 19.8023 41.9955 20.4459C43.5432 21.0587 44.3861 21.2687 45.3069 21.2706L46 21.2722L46 19.3583L46 17.4446L45.6663 17.3936Z" fill="#FFFF00"/>
<path fill-rule="evenodd" clip-rule="evenodd" d="M45.3583 9.55205C44.4329 9.54946 43.5252 9.32733 42.2204 8.78413C40.7175 8.15858 39.9176 7.99784 38.3181 8.00002C36.7415 8.0022 36.0364 8.14324 34.5169 8.76007C32.7913 9.46058 32.1158 9.58472 30.3123 9.53245C28.6692 9.48495 28.9492 9.55475 25.9777 8.45072L24.8996 8.05011L23 8.05011L21.1004 8.05011L20.0223 8.45072C17.0508 9.55475 17.3308 9.48495 15.6877 9.53245C13.8842 9.58472 13.2087 9.46058 11.4831 8.76007C9.96362 8.14324 9.25853 8.0022 7.6819 8.00002C6.08237 7.99784 5.28251 8.15858 3.7796 8.78412C2.47476 9.32732 1.56708 9.54946 0.641739 9.55205L-6.79194e-08 9.55381L-1.54047e-07 11.5242L-2.40175e-07 13.4946L0.641739 13.4928C1.57499 13.4901 2.45155 13.2725 3.90178 12.6835C5.46527 12.0485 6.1563 11.9106 7.75223 11.9154C9.22064 11.9196 9.93066 12.0705 11.5197 12.7158C13.1673 13.3849 13.9815 13.5304 15.7511 13.4717C17.0354 13.4292 17.2971 13.3882 18.0714 13.1079C18.5515 12.9341 19.4118 12.6228 19.9834 12.4159C21.25 11.9576 22.5355 11.8066 23.9887 11.9454C24.6841 12.0119 25.2858 12.1515 26.0166 12.4159C26.5882 12.6228 27.4485 12.9341 27.9286 13.1079C28.7029 13.3882 28.9646 13.4292 30.2489 13.4717C32.0185 13.5304 32.8327 13.3849 34.4803 12.7158C36.0693 12.0705 36.7794 11.9196 38.2478 11.9154C39.8398 11.9106 40.5348 12.0485 42.0795 12.6757C43.4922 13.2493 44.484 13.4946 45.3906 13.4946L46 13.4946L46 11.5242L46 9.55381L45.3583 9.55205ZM45.6663 17.3937C45.4827 17.3656 45.0355 17.3167 44.6725 17.2849C44.3093 17.2532 43.5474 17.0589 42.9783 16.8529C42.4095 16.647 41.5515 16.3362 41.0714 16.1622C40.2879 15.8783 40.0447 15.8411 38.6937 15.7984C36.9002 15.7418 36.2151 15.8666 34.5026 16.5619C32.9309 17.1999 32.2169 17.351 30.7522 17.3552C29.1563 17.36 28.4653 17.2221 26.9018 16.5871C25.269 15.9239 24.5814 15.7801 23.0323 15.7778C21.4782 15.7756 20.7023 15.9359 19.0795 16.5949C17.5348 17.2221 16.8398 17.36 15.2478 17.3552C13.7831 17.351 13.0691 17.1999 11.4974 16.5619C9.78485 15.8666 9.09979 15.7418 7.3063 15.7984C5.95526 15.8411 5.71211 15.8783 4.92857 16.1622C4.44855 16.3362 3.59046 16.647 3.02172 16.8529C2.45258 17.0589 1.6907 17.2532 1.32753 17.2849C0.964458 17.3167 0.517189 17.3656 0.333702 17.3937L-4.12842e-07 17.4447L-4.97116e-07 19.3727L-5.8139e-07 21.3006L0.949775 21.2499C1.91957 21.1983 2.09475 21.148 4.87723 20.121C5.73131 19.8058 5.91582 19.7767 7.31225 19.7371C9.1158 19.6861 9.79287 19.8106 11.5169 20.5105C13.0462 21.1314 13.7408 21.2687 15.3504 21.2687C16.9759 21.2687 17.6821 21.1267 19.2009 20.4946C20.7067 19.8678 21.43 19.7204 23 19.7204C24.57 19.7204 25.2933 19.8678 26.7991 20.4946C28.3179 21.1267 29.024 21.2687 30.6496 21.2687C32.2592 21.2687 32.9538 21.1314 34.4831 20.5105C36.2071 19.8106 36.8842 19.6861 38.6877 19.7371C40.0842 19.7767 40.2687 19.8058 41.1228 20.121C43.9053 21.148 44.0804 21.1983 45.0502 21.2499L46 21.3006L46 19.3727L46 17.4447L45.6663 17.3937Z" fill="#F2B134"/>
<path fill-rule="evenodd" clip-rule="evenodd" d="M45.3583 9.55205C44.4329 9.54946 43.5252 9.32733 42.2204 8.78413C40.7175 8.15858 39.9176 7.99784 38.3181 8.00002C36.7415 8.0022 36.0364 8.14324 34.5169 8.76007C32.7913 9.46058 32.1158 9.58472 30.3123 9.53245C28.6692 9.48495 28.9492 9.55475 25.9777 8.45072L24.8996 8.05011L23 8.05011L21.1004 8.05011L20.0223 8.45072C17.0508 9.55475 17.3308 9.48495 15.6877 9.53245C13.8842 9.58472 13.2087 9.46058 11.4831 8.76007C9.96362 8.14324 9.25853 8.0022 7.6819 8.00002C6.08237 7.99784 5.2825 8.15858 3.7796 8.78412C2.47476 9.32732 1.56708 9.54946 0.641739 9.55205L-6.79194e-08 9.55381L-1.54727e-07 11.5397L-2.4153e-07 13.5256L0.941868 13.4581C1.88189 13.3907 2.2195 13.2924 4.6998 12.3643C5.74425 11.9734 7.13914 11.7877 8.31696 11.8828C9.56728 11.9837 10.0557 12.1071 11.5 12.6874C13.0435 13.3076 13.9387 13.4946 15.3638 13.4946C16.7281 13.4946 17.7355 13.2833 19.1225 12.7063C20.7368 12.0348 21.3783 11.9018 23 11.9018C24.6217 11.9018 25.2632 12.0348 26.8775 12.7063C28.2645 13.2833 29.2719 13.4946 30.6362 13.4946C32.0613 13.4946 32.9565 13.3076 34.5 12.6874C35.2059 12.4038 36.0277 12.1195 36.326 12.0557C37.9414 11.7102 39.8727 11.83 41.3002 12.3643C43.7805 13.2924 44.1181 13.3907 45.0581 13.4581L46 13.5256L46 11.5397L46 9.55381L45.3583 9.55205ZM45.2556 17.3905C44.1438 17.2836 43.346 17.0732 42.1225 16.5643C40.7355 15.9873 39.7281 15.776 38.3638 15.776C36.9387 15.776 36.0435 15.963 34.5 16.5832C33.7941 16.8668 32.9723 17.151 32.674 17.2149C31.0586 17.5604 29.1273 17.4406 27.6998 16.9063C27.2327 16.7316 26.3884 16.418 25.8237 16.2095L24.7969 15.8306L23 15.8306L21.2031 15.8306L20.1763 16.2095C19.6116 16.418 18.7673 16.7316 18.3002 16.9063C17.2557 17.2972 15.8609 17.4829 14.683 17.3878C13.4327 17.2869 12.9443 17.1635 11.5 16.5832C9.95653 15.963 9.06128 15.776 7.6362 15.776C6.27489 15.776 5.33312 15.9737 3.8947 16.5613C2.62272 17.0808 1.85057 17.2841 0.744419 17.3905L-4.13599e-07 17.4621L-4.97492e-07 19.3813L-5.8139e-07 21.3006L0.949775 21.2499C1.91957 21.1983 2.09475 21.148 4.87723 20.121C5.73131 19.8058 5.91582 19.7767 7.31225 19.7371C9.1158 19.6861 9.79287 19.8106 11.5169 20.5105C13.0462 21.1314 13.7408 21.2687 15.3504 21.2687C16.9759 21.2687 17.6821 21.1267 19.2009 20.4946C20.7067 19.8678 21.43 19.7204 23 19.7204C24.57 19.7204 25.2933 19.8678 26.7991 20.4946C28.3179 21.1267 29.024 21.2687 30.6496 21.2687C32.2592 21.2687 32.9538 21.1314 34.4831 20.5105C36.2071 19.8106 36.8842 19.6861 38.6877 19.7371C40.0842 19.7767 40.2687 19.8058 41.1228 20.121C43.9053 21.148 44.0804 21.1983 45.0502 21.2499L46 21.3006L46 19.3813L46 17.4621L45.2556 17.3905Z" fill="#F9DA32"/>
</g>
<defs>
<clipPath id="clip0_283_1572">
<rect width="46" height="46" fill="white" transform="translate(46) rotate(90)"/>
</clipPath>
</defs>
</svg>
