<svg width="46" height="46" viewBox="0 0 46 46" fill="none" xmlns="http://www.w3.org/2000/svg">
<path d="M19.4141 12.2188H26.6016C26.591 12.6157 26.4904 13.005 26.3073 13.3574C26.1243 13.7097 25.8636 14.0159 25.545 14.2528C24.8179 14.8104 23.924 15.1067 23.0078 15.0938C21.0169 15.0938 19.4141 13.8072 19.4141 12.2188Z" fill="#94DE59"/>
<path d="M23.0075 15.0938C23.9237 15.1067 24.8176 14.8104 25.5447 14.2528C25.8633 14.0159 26.124 13.7097 26.307 13.3574C26.49 13.005 26.5907 12.6157 26.6012 12.2188H19.4137C19.4137 13.8072 21.0166 15.0938 23.0075 15.0938ZM6.72063 10.7812H17.2862C17.3691 10.3754 17.5897 10.0106 17.9105 9.74869C18.2314 9.48674 18.633 9.34369 19.0472 9.34375H26.9534C27.3677 9.34369 27.7692 9.48674 28.0901 9.74869C28.411 10.0106 28.6315 10.3754 28.7144 10.7812H39.28L39.6681 12.7866C39.8622 13.7928 40.0275 14.8063 40.1569 15.8125H28.7144C28.6315 16.2184 28.411 16.5831 28.0901 16.8451C27.7692 17.107 27.3677 17.2501 26.9534 17.25H19.0472C18.633 17.2501 18.2314 17.107 17.9105 16.8451C17.5897 16.5831 17.3691 16.2184 17.2862 15.8125H5.84375C5.97312 14.8063 6.13844 13.7928 6.3325 12.7866L6.72063 10.7812Z" fill="#E6ECF4"/>
<path d="M39.1719 0.71875C38.9347 2.63781 38.6903 4.54969 38.4531 6.46875H7.54688C7.30969 4.54969 7.06531 2.63781 6.82812 0.71875C8.17219 0.71875 8.17219 1.22188 9.52344 1.22188C10.8675 1.22188 10.8675 0.71875 12.2116 0.71875C13.5628 0.71875 13.5628 1.22188 14.9069 1.22188C16.2509 1.22188 16.2509 0.71875 17.6022 0.71875C18.9462 0.71875 18.9462 1.22188 20.2975 1.22188C21.6416 1.22188 21.6416 0.71875 22.9928 0.71875C24.3369 0.71875 24.3369 1.22188 25.6809 1.22188C27.0322 1.22188 27.0322 0.71875 28.3762 0.71875C29.7275 0.71875 29.7275 1.22188 31.0716 1.22188C32.4228 1.22188 32.4228 0.71875 33.7741 0.71875C35.1181 0.71875 35.1181 1.22188 36.4694 1.22188C37.8206 1.22188 37.8206 0.71875 39.1719 0.71875Z" fill="#9DF743"/>
<path d="M38.4531 39.5312C38.6903 41.4503 38.9347 43.3622 39.1719 45.2812C37.8278 45.2812 37.8278 44.7781 36.4766 44.7781C35.1325 44.7781 35.1325 45.2812 33.7884 45.2812C32.4372 45.2812 32.4372 44.7781 31.0931 44.7781C29.7491 44.7781 29.7491 45.2812 28.3978 45.2812C27.0537 45.2812 27.0537 44.7781 25.7025 44.7781C24.3584 44.7781 24.3584 45.2812 23.0072 45.2812C21.6631 45.2812 21.6631 44.7781 20.3191 44.7781C18.9678 44.7781 18.9678 45.2812 17.6238 45.2812C16.2725 45.2812 16.2725 44.7781 14.9284 44.7781C13.5772 44.7781 13.5772 45.2812 12.2259 45.2812C10.8819 45.2812 10.8819 44.7781 9.53063 44.7781C8.17938 44.7781 8.17938 45.2812 6.82812 45.2812C7.06531 43.3622 7.30969 41.4503 7.54688 39.5312H38.4531Z" fill="#9DF743"/>
<path d="M34.2197 27.6719C33.8615 27.1194 33.3706 26.6654 32.7918 26.3515C32.213 26.0376 31.5647 25.8738 30.9062 25.875H30.5469V33.7813H30.9062C31.618 33.7812 32.3166 33.589 32.9282 33.2249C33.5399 32.8608 34.0418 32.3384 34.3812 31.7127C34.7205 31.087 34.8847 30.3813 34.8562 29.6701C34.8278 28.9588 34.6079 28.2685 34.2197 27.6719Z" fill="#94DE59"/>
<path d="M24.4375 25.875H24.0781V33.7812H24.4375C24.9566 33.7812 25.4707 33.679 25.9503 33.4803C26.4299 33.2817 26.8657 32.9905 27.2328 32.6234C27.5999 32.2563 27.891 31.8205 28.0897 31.3409C28.2884 30.8613 28.3906 30.3473 28.3906 29.8281C28.3906 29.309 28.2884 28.7949 28.0897 28.3153C27.891 27.8357 27.5999 27.3999 27.2328 27.0328C26.8657 26.6658 26.4299 26.3746 25.9503 26.1759C25.4707 25.9773 24.9566 25.875 24.4375 25.875Z" fill="#94DE59"/>
<path d="M17.9688 25.875H17.6094V33.7812H17.9688C18.4879 33.7812 19.0019 33.679 19.4815 33.4803C19.9612 33.2817 20.397 32.9905 20.764 32.6234C21.1311 32.2563 21.4223 31.8205 21.621 31.3409C21.8196 30.8613 21.9219 30.3473 21.9219 29.8281C21.9219 29.309 21.8196 28.7949 21.621 28.3153C21.4223 27.8357 21.1311 27.3999 20.764 27.0328C20.397 26.6658 19.9612 26.3746 19.4815 26.1759C19.0019 25.9773 18.4879 25.875 17.9688 25.875Z" fill="#94DE59"/>
<path d="M11.5 25.875H11.1406V33.7812H11.5C12.0191 33.7812 12.5332 33.679 13.0128 33.4803C13.4924 33.2817 13.9282 32.9905 14.2953 32.6234C14.6624 32.2563 14.9535 31.8205 15.1522 31.3409C15.3509 30.8613 15.4531 30.3473 15.4531 29.8281C15.4531 29.309 15.3509 28.7949 15.1522 28.3153C14.9535 27.8357 14.6624 27.3999 14.2953 27.0328C13.9282 26.6658 13.4924 26.3746 13.0128 26.1759C12.5332 25.9773 12.0191 25.875 11.5 25.875Z" fill="#94DE59"/>
<path d="M19.0453 9.34375H26.9516C27.3658 9.34369 27.7673 9.48674 28.0882 9.74869C28.4091 10.0106 28.6296 10.3754 28.7125 10.7812H39.2781L38.4516 6.46875H7.54531L6.71875 10.7812H17.2844C17.3673 10.3754 17.5878 10.0106 17.9087 9.7487C18.2296 9.48675 18.6311 9.3437 19.0453 9.34375Z" fill="#94DE59"/>
<path d="M40.1558 15.8125H28.7133C28.6305 16.2184 28.4099 16.5831 28.089 16.8451C27.7681 17.107 27.3666 17.2501 26.9524 17.25H19.0461C18.6319 17.25 18.2304 17.107 17.9095 16.845C17.5886 16.5831 17.3681 16.2183 17.2852 15.8125H5.84271C5.13789 21.1246 5.25425 26.5136 6.18771 31.7903L7.54614 39.5312H38.4524L39.8108 31.7903C40.7443 26.5136 40.8607 21.1246 40.1558 15.8125ZM37.0149 33.6231C37.0157 34.2359 36.7731 34.824 36.3405 35.258C35.9078 35.692 35.3205 35.9364 34.7077 35.9375H11.298C10.994 35.9377 10.693 35.878 10.4121 35.7617C10.1312 35.6455 9.87602 35.475 9.66107 35.2601C9.44612 35.0451 9.27565 34.7899 9.15941 34.509C9.04317 34.2281 8.98345 33.9271 8.98364 33.6231V21.7206C8.98345 21.4166 9.04317 21.1156 9.15941 20.8347C9.27565 20.5538 9.44612 20.2986 9.66107 20.0837C9.87602 19.8687 10.1312 19.6983 10.4121 19.582C10.693 19.4658 10.994 19.4061 11.298 19.4062H34.7077C35.3205 19.4074 35.9078 19.6518 36.3405 20.0858C36.7731 20.5198 37.0157 21.1078 37.0149 21.7206V33.6231Z" fill="#94DE59"/>
<path d="M30.9062 21.5625H30.5469V25.875H30.9062C31.5647 25.8738 32.213 26.0376 32.7918 26.3515C33.3706 26.6654 33.8615 27.1194 34.2197 27.6719C34.4487 27.3227 34.621 26.9394 34.73 26.5362C34.8105 26.2018 34.8539 25.8596 34.8594 25.5156C34.8597 24.9964 34.7576 24.4822 34.5591 24.0025C34.3605 23.5227 34.0693 23.0868 33.7022 22.7197C33.335 22.3525 32.8991 22.0614 32.4194 21.8628C31.9396 21.6643 31.4255 21.5622 30.9062 21.5625Z" fill="#9DF743"/>
<path d="M24.4375 21.5625H24.0781V25.875H24.4375C25.096 25.8738 25.7442 26.0376 26.323 26.3515C26.9018 26.6654 27.3928 27.1194 27.7509 27.6719C27.98 27.3227 28.1522 26.9394 28.2612 26.5362C28.3418 26.2018 28.3852 25.8596 28.3906 25.5156C28.3909 24.9964 28.2889 24.4822 28.0903 24.0025C27.8918 23.5227 27.6006 23.0868 27.2334 22.7197C26.8663 22.3525 26.4304 22.0614 25.9506 21.8628C25.4709 21.6643 24.9567 21.5622 24.4375 21.5625Z" fill="#9DF743"/>
<path d="M17.9687 21.5625H17.6094V25.875H17.9687C18.6272 25.8738 19.2755 26.0376 19.8543 26.3515C20.4331 26.6654 20.924 27.1194 21.2822 27.6719C21.5085 27.3221 21.6783 26.9389 21.7853 26.5362C21.8702 26.2025 21.916 25.86 21.9219 25.5156C21.9222 24.9964 21.8201 24.4822 21.6216 24.0025C21.423 23.5227 21.1318 23.0868 20.7647 22.7197C20.3976 22.3525 19.9616 22.0614 19.4819 21.8628C19.0021 21.6643 18.488 21.5622 17.9687 21.5625Z" fill="#9DF743"/>
<path d="M11.5 21.5625H11.1406V25.875H11.5C12.1585 25.8738 12.8067 26.0376 13.3855 26.3515C13.9643 26.6654 14.4553 27.1194 14.8134 27.6719C15.0397 27.3221 15.2095 26.9389 15.3166 26.5362C15.4014 26.2025 15.4473 25.86 15.4531 25.5156C15.4534 24.9964 15.3514 24.4822 15.1528 24.0025C14.9543 23.5227 14.6631 23.0868 14.2959 22.7197C13.9288 22.3525 13.4929 22.0614 13.0131 21.8628C12.5334 21.6643 12.0192 21.5622 11.5 21.5625Z" fill="#9DF743"/>
<path d="M34.8672 29.8281C34.868 29.0625 34.6457 28.3132 34.2275 27.6719C34.4565 27.3227 34.6288 26.9394 34.7378 26.5362C34.8183 26.2018 34.8617 25.8596 34.8672 25.5156C34.8675 24.9964 34.7654 24.4822 34.5669 24.0025C34.3683 23.5227 34.0771 23.0868 33.71 22.7197C33.3429 22.3525 32.907 22.0614 32.4272 21.8628C31.9475 21.6643 31.4333 21.5622 30.9141 21.5625H30.5547V33.7812H30.9141C31.4333 33.7815 31.9475 33.6795 32.4272 33.4809C32.907 33.2824 33.3429 32.9912 33.71 32.6241C34.0771 32.2569 34.3683 31.821 34.5669 31.3413C34.7654 30.8615 34.8675 30.3473 34.8672 29.8281ZM21.9297 29.8281C21.9305 29.0625 21.7082 28.3132 21.29 27.6719C21.5163 27.3221 21.6861 26.9389 21.7931 26.5362C21.878 26.2025 21.9238 25.86 21.9297 25.5156C21.93 24.9964 21.8279 24.4822 21.6294 24.0025C21.4308 23.5227 21.1396 23.0868 20.7725 22.7197C20.4054 22.3525 19.9695 22.0614 19.4897 21.8628C19.01 21.6643 18.4958 21.5622 17.9766 21.5625H17.6172V33.7812H17.9766C18.4958 33.7815 19.01 33.6795 19.4897 33.4809C19.9695 33.2824 20.4054 32.9912 20.7725 32.6241C21.1396 32.2569 21.4308 31.821 21.6294 31.3413C21.8279 30.8615 21.93 30.3473 21.9297 29.8281ZM28.3984 25.5156C28.3987 24.9964 28.2967 24.4822 28.0981 24.0025C27.8996 23.5227 27.6084 23.0868 27.2412 22.7197C26.8741 22.3525 26.4382 22.0614 25.9585 21.8628C25.4787 21.6643 24.9645 21.5622 24.4453 21.5625H24.0859V33.7812H24.4453C25.1571 33.7812 25.8557 33.589 26.4673 33.2249C27.0789 32.8608 27.5809 32.3384 27.9202 31.7127C28.2596 31.087 28.4237 30.3813 28.3953 29.6701C28.3669 28.9588 28.1469 28.2685 27.7587 27.6719C27.9878 27.3227 28.16 26.9394 28.2691 26.5362C28.3496 26.2018 28.393 25.8596 28.3984 25.5156ZM11.3066 19.4063H34.7163C35.3291 19.4074 35.9164 19.6518 36.349 20.0858C36.7817 20.5198 37.0242 21.1078 37.0234 21.7206V33.6231C37.0242 34.2359 36.7817 34.824 36.349 35.258C35.9164 35.692 35.3291 35.9364 34.7163 35.9375H11.3066C11.0026 35.9377 10.7015 35.878 10.4207 35.7617C10.1398 35.6455 9.88456 35.475 9.66961 35.2601C9.45466 35.0451 9.28419 34.7899 9.16795 34.509C9.05172 34.2281 8.99199 33.9271 8.99219 33.6231V21.7206C8.99199 21.4166 9.05172 21.1156 9.16795 20.8347C9.28419 20.5538 9.45466 20.2986 9.66961 20.0837C9.88456 19.8687 10.1398 19.6983 10.4207 19.582C10.7015 19.4658 11.0026 19.4061 11.3066 19.4063ZM15.4609 25.5156C15.4612 24.9964 15.3592 24.4822 15.1606 24.0025C14.9621 23.5227 14.6709 23.0868 14.3038 22.7197C13.9366 22.3525 13.5007 22.0614 13.021 21.8628C12.5412 21.6643 12.027 21.5622 11.5078 21.5625H11.1484V33.7812H11.5078C12.2196 33.7812 12.9182 33.589 13.5298 33.2249C14.1414 32.8608 14.6434 32.3384 14.9827 31.7127C15.3221 31.087 15.4862 30.3813 15.4578 29.6701C15.4294 28.9588 15.2094 28.2685 14.8213 27.6719C15.0475 27.3221 15.2173 26.9389 15.3244 26.5362C15.4093 26.2025 15.4551 25.86 15.4609 25.5156Z" fill="#80A254"/>
<path d="M15.4531 13.6562H8.98438C8.79375 13.6562 8.61093 13.5805 8.47614 13.4457C8.34135 13.3109 8.26562 13.1281 8.26562 12.9375C8.26562 12.7469 8.34135 12.5641 8.47614 12.4293C8.61093 12.2945 8.79375 12.2188 8.98438 12.2188H15.4531C15.6437 12.2188 15.8266 12.2945 15.9614 12.4293C16.0962 12.5641 16.1719 12.7469 16.1719 12.9375C16.1719 13.1281 16.0962 13.3109 15.9614 13.4457C15.8266 13.5805 15.6437 13.6562 15.4531 13.6562Z" fill="#CAD1E1"/>
<path d="M37.0156 13.6562H30.5469C30.3563 13.6562 30.1734 13.5805 30.0386 13.4457C29.9038 13.3109 29.8281 13.1281 29.8281 12.9375C29.8281 12.7469 29.9038 12.5641 30.0386 12.4293C30.1734 12.2945 30.3563 12.2188 30.5469 12.2188H37.0156C37.2062 12.2188 37.3891 12.2945 37.5239 12.4293C37.6587 12.5641 37.7344 12.7469 37.7344 12.9375C37.7344 13.1281 37.6587 13.3109 37.5239 13.4457C37.3891 13.5805 37.2062 13.6562 37.0156 13.6562Z" fill="#CAD1E1"/>
</svg>
